<svg xmlns="http://www.w3.org/2000/svg" xmlns:xlink="http://www.w3.org/1999/xlink" width="1000" zoomAndPan="magnify" viewBox="0 0 750 749.999995" height="1000" preserveAspectRatio="xMidYMid meet" version="1.0"><defs><clipPath id="773f4f210a"><path d="M 63.277344 72.175781 L 686.335938 72.175781 L 686.335938 678.148438 L 63.277344 678.148438 Z M 63.277344 72.175781 " clip-rule="nonzero"/></clipPath></defs><g clip-path="url(#773f4f210a)"><path fill="#000000" d="M 209.261719 640.726562 C 204.902344 650.539062 195.707031 663.507812 184.207031 666.414062 C 188.203125 670.292969 192.800781 672.839844 198.492188 672.109375 C 201.757812 671.625 202.605469 677.445312 199.339844 677.925781 C 186.023438 679.867188 178.035156 668.960938 171.5 658.78125 C 163.144531 645.691406 157.339844 633.09375 155.640625 617.582031 C 154.554688 607.769531 154.429688 597.828125 152.25 588.132812 C 150.558594 580.503906 146.445312 573.59375 144.628906 565.960938 C 142.566406 557.117188 145.59375 546.816406 155.523438 545.117188 C 157.214844 544.875 158.0625 547.296875 156.246094 547.785156 C 139.664062 552.027344 152.613281 573.109375 155.523438 582.320312 C 158.667969 592.257812 159.03125 602.675781 160.242188 612.855469 C 161.816406 625.699219 165.082031 636.96875 171.742188 648.117188 C 174.402344 652.601562 177.550781 658.414062 181.546875 663.386719 C 187.113281 661.691406 191.710938 659.507812 196.191406 655.027344 C 200.789062 650.421875 203.9375 644.726562 207.929688 639.632812 C 208.535156 638.667969 209.746094 639.878906 209.261719 640.726562 Z M 301.132812 626.667969 C 319.046875 616.492188 334.300781 600.855469 343.015625 582.320312 C 343.742188 580.863281 345.675781 581.957031 345.433594 583.285156 C 341.679688 602.921875 318.929688 619.886719 302.222656 628.484375 C 301.015625 629.214844 299.921875 627.398438 301.132812 626.667969 Z M 585.460938 481.378906 C 572.386719 477.863281 559.195312 478.46875 545.882812 477.988281 C 535.835938 477.621094 524.335938 477.015625 515.738281 471.199219 C 514.769531 470.476562 515.375 468.898438 516.585938 469.261719 C 529.175781 472.410156 540.792969 474.476562 553.75 475.082031 C 564.761719 475.5625 575.539062 476.292969 586.066406 479.804688 C 586.914062 480.046875 586.550781 481.621094 585.460938 481.378906 Z M 492.378906 550.328125 C 485.480469 548.144531 477.246094 545 472.289062 539.421875 C 471.683594 538.699219 472.40625 537.605469 473.257812 538.09375 C 476.28125 539.785156 479.0625 542.210938 482.089844 543.90625 C 485.480469 545.84375 488.992188 547.539062 492.742188 548.875 C 493.589844 549.238281 493.230469 550.570312 492.378906 550.328125 Z M 572.871094 264.835938 C 576.5 259.265625 583.765625 254.054688 590.785156 256.113281 C 591.878906 256.476562 591.996094 258.054688 590.785156 258.292969 C 587.882812 258.898438 584.976562 259.023438 582.070312 260.234375 C 579.167969 261.566406 576.261719 263.382812 574.203125 265.804688 C 573.597656 266.535156 572.386719 265.566406 572.871094 264.835938 Z M 535.46875 335.722656 C 511.746094 360.203125 491.167969 389.046875 457.523438 399.585938 C 456.671875 399.828125 456.3125 398.492188 457.15625 398.253906 C 474.585938 391.828125 488.992188 380.5625 501.578125 367.109375 C 512.109375 355.839844 521.429688 342.875 533.894531 333.664062 C 535.105469 332.816406 536.441406 334.757812 535.46875 335.722656 Z M 430.890625 256.476562 C 426.167969 259.988281 424.476562 271.988281 422.902344 277.441406 C 420.964844 284.347656 419.03125 291.136719 417.332031 298.039062 C 417.089844 298.886719 415.761719 298.523438 416.003906 297.675781 C 418.300781 286.894531 420.722656 276.230469 423.628906 265.6875 C 424.839844 261.445312 425.199219 254.902344 430.40625 254.78125 C 431.375 254.660156 431.496094 255.992188 430.890625 256.476562 Z M 476.402344 194.675781 C 484.269531 181.832031 491.414062 168.625 494.4375 153.71875 C 497.21875 139.542969 498.429688 124.757812 502.183594 110.824219 C 502.546875 109.613281 504.605469 109.855469 504.480469 111.1875 C 503.394531 125.972656 500.128906 141.601562 496.859375 156.140625 C 493.589844 170.925781 485.71875 183.042969 477.613281 195.523438 C 477.128906 196.253906 475.796875 195.523438 476.402344 194.675781 Z M 423.988281 319.003906 C 429.316406 287.617188 439.726562 257.929688 451.222656 228.363281 C 456.792969 213.824219 462.605469 199.28125 467.5625 184.617188 C 472.769531 169.351562 476.402344 153.84375 481 138.332031 C 481.367188 137.117188 483.421875 137.359375 483.300781 138.695312 C 480.03125 169.351562 466.234375 199.402344 455.101562 227.878906 C 443.355469 257.6875 431.132812 287.859375 425.445312 319.488281 C 425.199219 320.335938 423.871094 319.972656 423.988281 319.003906 Z M 188.445312 353.292969 C 204.058594 356.445312 219.550781 360.324219 234.921875 364.082031 C 247.390625 367.230469 261.3125 369.777344 272.808594 375.714844 C 274.144531 376.441406 273.175781 378.257812 271.839844 378.015625 C 258.527344 375.714844 245.335938 370.503906 232.136719 366.988281 C 217.371094 363.113281 202.484375 359.234375 187.957031 354.753906 C 187.113281 354.386719 187.476562 353.175781 188.445312 353.292969 Z M 166.65625 300.339844 C 165.207031 299.859375 165.8125 297.800781 167.261719 298.039062 C 179.972656 300.828125 191.472656 307.492188 202 314.882812 C 202.484375 315.246094 202 316.09375 201.519531 315.730469 C 190.742188 308.582031 178.878906 304.339844 166.65625 300.339844 Z M 143.417969 295.128906 C 170.894531 303.976562 198.371094 316.699219 223.058594 331.484375 C 223.789062 331.847656 223.304688 333.058594 222.453125 332.816406 C 221.609375 332.574219 220.761719 332.335938 219.914062 332.089844 C 219.550781 331.96875 219.550781 331.363281 220.035156 331.363281 C 215.554688 331.363281 207.6875 325.546875 203.453125 323.605469 C 197.160156 320.578125 190.867188 317.671875 184.449219 314.882812 C 170.652344 308.824219 156.609375 303.734375 142.691406 298.160156 C 140.875 297.3125 141.601562 294.523438 143.417969 295.128906 Z M 252.234375 182.925781 C 253.078125 227.636719 261.433594 270.171875 281.886719 310.398438 C 282.371094 311.488281 280.917969 312.339844 280.3125 311.371094 C 259.132812 272.710938 246.421875 227.394531 249.085938 183.042969 C 249.207031 180.863281 252.109375 180.863281 252.234375 182.925781 Z M 278.984375 118.699219 C 281.886719 127.789062 282.128906 137.722656 283.460938 147.054688 C 285.039062 158.082031 287.457031 169.105469 290.484375 179.894531 C 290.726562 180.984375 289.152344 181.347656 288.910156 180.378906 C 285.398438 169.714844 282.492188 159.054688 280.554688 147.902344 C 278.863281 137.601562 278.257812 127.300781 275.355469 117.246094 C 274.867188 115.429688 277.410156 114.699219 278.132812 116.277344 C 278.5 115.789062 278.984375 115.546875 279.707031 115.671875 C 293.628906 118.09375 304.402344 127.90625 308.640625 141.359375 C 309 142.332031 307.429688 142.695312 307.183594 141.722656 C 302.828125 129.484375 291.8125 120.761719 278.984375 118.699219 Z M 358.625 216.007812 C 352.214844 197.707031 347.375 180.378906 335.628906 164.382812 C 335.148438 163.652344 336.355469 162.6875 336.839844 163.414062 C 348.460938 177.953125 359.597656 196.617188 360.566406 215.640625 C 360.6875 216.851562 358.992188 216.972656 358.625 216.007812 Z M 351.609375 399.585938 C 353.304688 400.675781 354.878906 401.644531 356.570312 402.617188 C 357.296875 402.980469 358.023438 403.222656 358.75 403.339844 C 360.929688 407.828125 362.863281 412.3125 364.800781 416.792969 C 360.324219 411.097656 355.847656 405.40625 351.609375 399.585938 Z M 377.511719 409.398438 C 378.117188 412.792969 378.597656 416.308594 378.960938 419.699219 C 377.875 418.488281 376.90625 417.277344 375.820312 416.0625 C 373.035156 409.765625 370.25 403.464844 367.828125 397.164062 C 363.109375 385.046875 358.507812 372.929688 354.148438 360.8125 C 355.964844 363.839844 358.265625 366.503906 361.046875 368.324219 C 362.503906 369.292969 363.957031 369.535156 365.164062 369.292969 C 365.648438 370.140625 366.136719 370.863281 366.742188 371.59375 C 366.742188 371.714844 366.859375 371.714844 366.980469 371.835938 C 366.617188 372.441406 366.496094 373.289062 366.742188 374.257812 C 369.519531 386.257812 375.453125 397.039062 377.511719 409.398438 Z M 419.394531 411.21875 C 416.003906 414.976562 412.492188 418.371094 408.742188 421.761719 C 411.527344 417.640625 414.066406 413.398438 416.367188 409.039062 C 417.453125 409.765625 418.425781 410.492188 419.394531 411.21875 Z M 446.265625 386.621094 L 446.265625 386.5 L 446.382812 386.621094 C 446.382812 386.5 446.382812 386.5 446.265625 386.621094 Z M 365.164062 400.433594 C 365.164062 400.433594 365.285156 400.433594 365.164062 400.433594 C 365.164062 400.433594 365.285156 400.558594 365.285156 400.675781 C 365.285156 400.558594 365.285156 400.558594 365.164062 400.433594 Z M 385.742188 394.617188 C 385.742188 393.648438 385.742188 392.800781 385.621094 391.828125 C 386.105469 393.769531 386.464844 395.585938 386.953125 397.527344 C 386.589844 396.433594 386.105469 395.464844 385.742188 394.617188 Z M 411.160156 378.257812 C 411.644531 378.257812 412.132812 378.140625 412.613281 378.015625 C 411.886719 379.59375 411.039062 381.289062 410.316406 382.863281 C 410.433594 381.289062 410.796875 379.835938 411.160156 378.257812 Z M 351.003906 382.863281 C 350.757812 382.621094 350.882812 382.621094 351.003906 382.863281 Z M 350.277344 145.238281 C 350.398438 132.148438 348.460938 119.066406 346.40625 106.21875 C 346.28125 105.128906 344.347656 105.371094 344.464844 106.460938 C 345.800781 117.488281 346.164062 128.511719 346.644531 139.664062 C 346.039062 138.695312 345.433594 137.847656 344.828125 136.996094 C 337.566406 126.941406 328.25 118.09375 317.59375 112.277344 C 317.71875 112.15625 317.835938 112.035156 317.960938 111.914062 C 318.078125 111.671875 318.324219 111.429688 318.441406 111.1875 C 319.289062 109.976562 317.71875 108.765625 316.507812 109.25 C 320.378906 107.1875 322.4375 102.21875 325.585938 98.464844 C 328.488281 95.070312 331.878906 92.042969 335.269531 89.132812 C 338.902344 85.984375 345.800781 78.472656 350.882812 78.226562 C 355.601562 77.984375 357.058594 83.800781 359.597656 87.195312 C 370.976562 102.707031 389.132812 115.308594 387.195312 136.753906 C 387.070312 137.847656 387.675781 138.695312 388.527344 139.175781 C 379.933594 157.113281 376.78125 177.472656 374.242188 197.34375 C 374.121094 196.859375 374.003906 196.371094 373.757812 195.890625 C 376.542969 186.316406 374.242188 174.558594 373.757812 165.113281 C 372.910156 149.84375 372.429688 134.695312 368.554688 119.789062 C 368.191406 118.460938 366.253906 119.066406 366.496094 120.394531 C 369.402344 133.964844 369.644531 147.78125 370.25 161.59375 C 370.613281 169.960938 372.304688 180.011719 371.460938 189.101562 C 369.28125 183.648438 366.859375 178.316406 364.5625 173.105469 C 360.082031 163.652344 355.601562 154.207031 350.277344 145.238281 Z M 677.9375 290.527344 C 677.816406 290.527344 677.695312 290.648438 677.570312 290.648438 C 677.695312 289.558594 677.695312 288.347656 677.816406 287.253906 C 677.9375 286.042969 675.878906 285.683594 675.636719 287.011719 C 674.1875 294.042969 671.039062 300.339844 668.980469 307.246094 C 668.132812 309.917969 672.246094 311.734375 673.457031 309.1875 C 675.878906 304.339844 676.847656 298.648438 677.332031 293.195312 C 677.570312 293.433594 677.9375 293.558594 678.300781 293.675781 C 687.136719 294.648438 677.453125 314.519531 675.636719 316.941406 C 675.398438 317.304688 675.152344 317.546875 674.910156 317.910156 C 673.820312 317.429688 672.488281 318.757812 672.976562 319.972656 C 669.949219 322.882812 666.320312 325.0625 662.804688 327.363281 C 657.359375 331 651.546875 334.757812 650.703125 341.664062 C 650.460938 343.359375 652.882812 343.964844 653.851562 342.996094 C 659.78125 337.300781 665.347656 332.941406 672.007812 328.210938 C 673.21875 327.363281 674.304688 326.515625 675.273438 325.546875 C 676.726562 330.515625 676.605469 335.847656 674.304688 340.570312 C 671.765625 345.90625 666.558594 348.8125 663.535156 353.660156 C 659.78125 359.476562 658.570312 364.566406 652.277344 368.6875 C 647.070312 372.078125 641.019531 374.140625 635.328125 376.441406 C 624.195312 380.921875 613.058594 385.164062 601.921875 389.164062 C 601.921875 389.164062 601.921875 389.164062 602.042969 389.046875 C 608.699219 385.164062 614.875 380.199219 621.289062 375.835938 C 628.550781 370.863281 636.175781 366.265625 643.199219 360.929688 C 644.042969 360.324219 643.320312 359.113281 642.351562 359.597656 C 634.964844 363.476562 627.097656 367.835938 619.59375 372.5625 C 626.617188 365.535156 633.636719 358.628906 641.625 352.6875 C 643.074219 351.601562 641.863281 349.660156 640.292969 350.386719 C 626.375 356.6875 616.328125 368.441406 605.070312 378.382812 C 598.414062 384.316406 591.273438 389.40625 583.28125 393.40625 C 576.019531 397.164062 568.152344 399.101562 561.011719 402.980469 C 561.011719 402.980469 561.011719 402.980469 560.890625 402.980469 C 553.023438 405.523438 545.03125 407.945312 537.164062 410.371094 C 549.753906 397.644531 557.984375 378.257812 573.359375 369.410156 C 574.203125 368.929688 573.476562 367.71875 572.628906 368.199219 C 561.976562 374.015625 554.597656 383.105469 547.210938 392.558594 C 541.039062 400.433594 535.105469 407.339844 527.726562 413.28125 C 525.910156 413.765625 524.09375 414.371094 522.277344 414.851562 C 526.027344 411.339844 529.417969 407.222656 532.320312 403.097656 C 545.636719 384.316406 554.355469 364.082031 573.597656 350.148438 C 574.445312 349.539062 573.597656 348.207031 572.753906 348.8125 C 557.863281 358.871094 548.058594 371.46875 538.859375 386.742188 C 531.597656 398.738281 523.972656 410.128906 513.078125 417.398438 C 504.96875 419.699219 496.738281 421.882812 488.503906 424.0625 C 476.640625 427.09375 464.660156 430.121094 452.679688 432.789062 C 446.140625 434.242188 438.515625 435.941406 431.496094 435.574219 C 433.429688 434.488281 435.371094 433.394531 437.304688 432.304688 C 450.378906 424.429688 463.328125 416.1875 476.28125 408.3125 C 477.246094 407.703125 476.402344 406.25 475.433594 406.734375 C 464.296875 413.15625 453.039062 419.457031 441.90625 426.003906 C 436.582031 429.152344 431.25 432.304688 425.6875 434.726562 C 423.871094 434.242188 422.054688 433.515625 420.480469 432.546875 C 425.082031 426.730469 428.953125 420.550781 432.460938 413.886719 C 432.585938 413.640625 432.707031 413.28125 432.828125 413.035156 C 433.554688 412.3125 434.160156 411.582031 434.640625 410.613281 C 436.582031 410.128906 438.273438 408.550781 437.304688 406.25 C 437.304688 406.128906 437.1875 406.011719 437.1875 405.886719 C 441.179688 401.164062 445.417969 396.675781 450.136719 392.679688 C 451.710938 391.347656 451.46875 389.40625 450.5 388.074219 C 451.46875 388.074219 452.433594 387.953125 453.402344 387.46875 C 456.429688 386.015625 459.820312 382.382812 462.480469 378.015625 C 464.179688 376.441406 465.75 374.746094 467.324219 373.046875 C 474.949219 364.929688 482.335938 356.6875 489.839844 348.570312 C 490.683594 347.601562 489.351562 346.269531 488.386719 347.117188 C 481 354.628906 473.738281 362.988281 465.75 370.382812 C 468.050781 362.988281 466.839844 355.839844 458.003906 354.753906 C 450.742188 353.78125 445.054688 359.957031 441.539062 365.535156 C 437.667969 371.59375 435.609375 378.863281 436.820312 386.015625 C 437.304688 388.558594 439.242188 389.652344 441.300781 389.527344 C 437.425781 392.316406 433.917969 395.347656 430.648438 398.617188 C 428.347656 397.28125 425.804688 396.433594 423.144531 395.953125 C 430.890625 380.441406 437.1875 364.199219 443.113281 347.964844 C 443.601562 346.753906 441.664062 346.269531 441.300781 347.480469 C 434.882812 363.71875 428.226562 379.957031 420 395.464844 C 419.148438 395.347656 418.425781 395.222656 417.578125 395.222656 C 412.007812 394.738281 409.347656 402.492188 413.09375 406.011719 C 413.21875 406.128906 413.460938 406.371094 413.582031 406.492188 C 409.464844 413.035156 404.988281 419.339844 400.507812 425.515625 C 400.875 420.429688 401.84375 415.457031 403.171875 410.613281 C 404.621094 405.160156 406.4375 399.953125 407.773438 394.5 C 411.644531 387.710938 414.910156 380.5625 418.058594 373.289062 C 425.5625 355.964844 432.585938 338.511719 439.847656 321.0625 C 440.210938 320.09375 438.515625 319.363281 438.03125 320.335938 C 431.132812 335.847656 424.234375 351.234375 417.332031 366.746094 C 417.9375 355.597656 419.148438 336.453125 406.683594 336.089844 C 400.027344 335.847656 398.570312 341.90625 398.570312 347.117188 C 398.570312 354.023438 397.722656 364.445312 401.71875 370.382812 C 402.324219 371.230469 403.171875 371.714844 404.015625 371.957031 C 404.015625 373.410156 404.746094 374.863281 405.714844 375.957031 C 402.6875 381.652344 398.695312 386.863281 395.910156 392.679688 C 395.542969 393.527344 395.183594 394.375 394.820312 395.105469 C 394.820312 392.433594 394.699219 389.652344 394.578125 386.863281 C 393.851562 366.265625 392.882812 345.664062 392.882812 324.941406 C 393.003906 283.011719 396.753906 241.089844 408.859375 200.976562 C 409.222656 199.765625 407.289062 199.160156 406.925781 200.496094 C 395.304688 237.453125 390.585938 275.988281 389.617188 314.640625 C 389.132812 334.269531 389.492188 353.898438 390.34375 373.535156 C 390.585938 380.199219 390.949219 386.980469 391.066406 393.648438 C 386.105469 372.804688 379.328125 351.964844 377.511719 330.757812 C 374.363281 292.707031 380.171875 254.054688 388.164062 216.851562 C 388.28125 216.125 387.195312 215.761719 387.070312 216.488281 C 380.296875 246.300781 374.363281 276.230469 373.757812 306.765625 C 371.824219 273.078125 374.847656 239.390625 379.085938 206.066406 C 382.957031 175.652344 385.859375 139.417969 410.433594 117.730469 C 416.121094 112.640625 422.660156 108.765625 430.042969 106.582031 C 435.371094 105.007812 440.933594 104.402344 445.898438 101.734375 C 435.976562 113.007812 428.953125 128.03125 424.59375 141.601562 C 424.234375 142.8125 426.050781 143.300781 426.53125 142.089844 C 430.042969 132.878906 434.277344 124.03125 439.726562 115.914062 C 444.6875 108.402344 450.984375 102.21875 456.3125 95.070312 C 456.671875 94.585938 456.429688 93.859375 455.945312 93.496094 C 457.035156 92.40625 458.125 91.4375 459.335938 90.464844 C 468.414062 82.953125 479.0625 85.011719 486.691406 93.253906 L 486.8125 93.371094 C 487.175781 95.191406 489.714844 95.191406 489.957031 93.253906 C 489.839844 89.617188 491.289062 87.195312 494.316406 85.742188 C 496.253906 83.074219 498.675781 82.710938 501.457031 84.773438 C 506.179688 86.101562 507.871094 87.800781 510.65625 91.800781 C 513.804688 96.285156 516.105469 101.371094 517.554688 106.460938 C 520.582031 116.882812 520.703125 127.90625 518.523438 138.453125 C 516.34375 149.359375 511.992188 159.660156 506.785156 169.472656 C 501.941406 178.441406 495.527344 186.921875 492.378906 196.734375 C 491.53125 199.523438 495.648438 201.21875 497.101562 198.675781 C 497.34375 198.3125 497.464844 197.949219 497.707031 197.582031 C 497.949219 197.949219 498.554688 198.1875 499.035156 197.828125 C 507.265625 192.253906 514.289062 183.894531 523.125 179.046875 C 519.007812 190.558594 511.746094 199.886719 505.332031 210.1875 C 498.554688 221.210938 492.863281 232.605469 487.417969 244.359375 C 486.929688 245.328125 488.386719 246.300781 488.992188 245.207031 C 495.648438 232.363281 503.03125 219.757812 510.898438 207.640625 C 516.710938 198.796875 525.789062 189.347656 525.664062 178.078125 C 525.664062 177.953125 525.664062 177.835938 525.546875 177.710938 C 527.121094 176.984375 528.8125 176.378906 530.507812 175.894531 C 547.09375 171.53125 558.46875 181.953125 562.101562 197.222656 C 562.464844 198.917969 565.25 199.042969 565.609375 197.222656 C 568.152344 183.40625 555.320312 171.894531 542.492188 170.441406 C 525.789062 168.625 510.78125 182.078125 499.886719 193.828125 C 515.015625 168.019531 532.320312 138.9375 523.847656 107.914062 C 521.1875 98.21875 514.410156 83.4375 503.875 79.800781 C 496.496094 77.257812 488.140625 82.710938 487.054688 90.101562 C 482.695312 84.890625 476.160156 82.105469 469.140625 82.464844 C 457.523438 83.074219 452.191406 94.101562 442.144531 98.21875 C 431.011719 102.824219 420.480469 103.429688 410.433594 111.066406 C 403.535156 116.394531 397.722656 123.058594 393.125 130.453125 C 392.640625 121.242188 388.40625 113.007812 382.71875 105.488281 C 378.960938 100.644531 374.609375 96.160156 370.613281 91.554688 C 366.011719 86.347656 362.984375 80.164062 358.625 74.953125 C 352.214844 67.441406 341.804688 77.011719 336.480469 81.621094 C 327.519531 89.378906 317.355469 97.976562 313.964844 109.855469 C 313.964844 109.976562 313.964844 110.09375 313.964844 110.09375 C 305.007812 105.976562 295.203125 103.917969 284.671875 105.128906 C 282.734375 105.371094 282.617188 108.402344 284.671875 108.277344 C 337.085938 105.855469 360.082031 173.230469 371.460938 213.460938 C 371.582031 213.824219 371.824219 214.1875 372.0625 214.429688 C 368.191406 244.480469 365.769531 274.777344 367.222656 305.070312 C 368.433594 330.515625 374.847656 355.476562 377.992188 380.5625 C 376.300781 377.777344 374.726562 374.988281 373.640625 371.957031 C 373.273438 370.746094 372.429688 370.015625 371.582031 369.777344 C 376.300781 359.597656 371.09375 336.933594 358.992188 334.875 C 351.488281 333.546875 348.703125 339.847656 349.1875 345.90625 C 337.445312 312.21875 326.796875 278.046875 317.59375 243.628906 C 317.230469 242.417969 315.414062 242.90625 315.78125 244.117188 C 324.734375 279.863281 334.78125 315.246094 346.886719 350.148438 C 351.246094 362.746094 355.847656 375.230469 360.566406 387.589844 C 359.113281 385.527344 357.417969 383.710938 355.722656 381.894531 C 346.886719 364.199219 338.777344 346.269531 331.390625 327.96875 C 316.625 291.136719 305.25 253.082031 295.808594 214.546875 C 295.566406 213.824219 294.476562 214.066406 294.597656 214.914062 C 302.101562 255.628906 314.207031 295.253906 329.699219 333.546875 C 335.628906 348.085938 342.046875 362.503906 348.945312 376.5625 C 348.703125 376.441406 348.460938 376.199219 348.339844 376.078125 C 345.800781 374.382812 341.441406 375.351562 340.109375 378.257812 C 339.625 379.230469 339.382812 380.199219 339.140625 381.167969 C 324.128906 358.265625 311.542969 333.546875 304.402344 307.007812 C 304.039062 305.792969 302.34375 306.28125 302.589844 307.492188 C 309.246094 335.96875 321.953125 361.898438 338.171875 386.136719 C 345.800781 397.527344 354.03125 408.550781 362.621094 419.214844 C 364.320312 421.277344 365.890625 423.457031 367.585938 425.640625 C 361.535156 423.09375 355.117188 420.910156 349.1875 418.371094 C 347.855469 417.761719 346.644531 419.699219 347.980469 420.429688 C 355.964844 424.1875 364.195312 429.035156 372.546875 432.304688 C 372.792969 432.667969 373.035156 433.027344 373.398438 433.273438 C 374.242188 434.726562 375.214844 436.179688 376.179688 437.632812 C 375.9375 437.632812 375.574219 437.632812 375.214844 437.757812 C 373.757812 438.121094 372.304688 438.605469 370.855469 439.085938 C 361.046875 435.699219 350.640625 433.515625 340.835938 430 C 326.796875 425.152344 312.996094 419.457031 299.804688 412.675781 C 298.835938 412.1875 297.863281 413.640625 298.957031 414.246094 C 318.324219 425.277344 340.351562 435.816406 362.621094 441.269531 C 354.878906 442.480469 347.734375 443.210938 339.507812 441.875 C 331.152344 440.421875 323.042969 437.757812 315.050781 435.09375 C 313.601562 434.605469 313.117188 436.789062 314.445312 437.269531 C 323.769531 440.90625 335.386719 445.632812 346.644531 446.605469 C 345.917969 446.847656 345.195312 447.085938 344.464844 447.210938 C 331.878906 450.480469 320.015625 450.480469 307.308594 447.933594 C 285.15625 443.574219 265.425781 438.726562 242.550781 440.664062 C 201.273438 444.300781 147.894531 457.992188 121.871094 414.976562 C 121.144531 413.765625 118.847656 414.492188 119.453125 416.0625 C 135.667969 460.898438 193.890625 453.023438 230.570312 448.539062 C 243.15625 446.964844 255.742188 445.753906 268.449219 446.847656 C 279.101562 447.691406 289.390625 450.597656 299.804688 452.90625 C 246.304688 460.292969 201.15625 496.285156 161.210938 530.699219 C 158.183594 533.246094 162.539062 537.484375 165.566406 535.0625 C 208.054688 499.433594 250.898438 462.597656 307.671875 454.597656 C 308.035156 454.722656 308.515625 454.722656 308.882812 454.839844 C 314.570312 455.8125 320.015625 456.175781 325.464844 456.050781 C 317.835938 459.082031 310.457031 462.597656 303.3125 466.109375 C 288.785156 473.261719 273.78125 481.140625 261.1875 491.558594 C 255.742188 496.039062 251.265625 501.132812 247.390625 506.945312 C 242.425781 514.582031 236.738281 519.0625 229.839844 524.761719 C 218.824219 533.726562 209.503906 546.328125 205.390625 560.023438 C 205.148438 560.871094 206.359375 561.355469 206.84375 560.628906 C 213.980469 545.117188 222.699219 533.851562 236.375 523.792969 C 247.269531 515.792969 252.234375 503.558594 262.523438 494.828125 C 285.640625 475.199219 314.570312 464.898438 342.410156 453.875 C 353.785156 451.570312 364.925781 447.691406 376.179688 443.691406 C 376.664062 443.691406 377.148438 443.574219 377.386719 443.210938 C 378.238281 442.722656 378.84375 441.875 378.960938 441.027344 C 379.691406 441.875 380.296875 442.722656 381.140625 443.574219 C 364.195312 449.144531 347.492188 455.933594 332.242188 465.023438 C 313.601562 476.167969 299.921875 491.191406 289.027344 509.855469 C 282.617188 520.882812 276.683594 531.910156 268.695312 541.96875 C 260.707031 552.027344 251.503906 561.117188 243.277344 570.929688 C 230.082031 586.679688 218.707031 605.222656 218.945312 626.425781 C 218.945312 627.398438 220.398438 627.398438 220.398438 626.425781 C 221.609375 601.464844 236.980469 582.5625 253.078125 564.867188 C 267.605469 548.996094 279.707031 533.121094 290.484375 514.460938 C 301.617188 495.191406 314.8125 479.679688 334.058594 468.167969 C 348.703125 459.328125 364.679688 453.386719 380.660156 447.570312 C 379.203125 448.90625 377.753906 450.238281 376.300781 451.453125 C 366.859375 459.8125 357.902344 468.414062 349.1875 477.503906 C 331.996094 495.433594 316.992188 514.703125 303.195312 535.304688 C 302.589844 536.152344 303.917969 536.878906 304.523438 536.027344 C 317.960938 517.734375 332.726562 500.039062 348.339844 483.5625 C 355.484375 476.046875 362.863281 468.777344 370.488281 461.75 C 375.089844 457.511719 379.808594 452.664062 385.015625 448.664062 C 381.265625 462.234375 375.9375 475.199219 368.675781 487.316406 C 364.195312 494.953125 358.992188 502.097656 353.179688 508.765625 C 348.945312 513.734375 343.253906 518.097656 340.59375 524.15625 C 337.328125 531.785156 336.960938 539.785156 332.601562 547.296875 C 328.25 554.808594 322.195312 561.355469 315.78125 567.292969 C 303.195312 578.925781 288.910156 588.5 277.410156 601.464844 C 276.683594 602.316406 277.894531 603.644531 278.738281 602.796875 C 290.601562 589.589844 305.855469 580.257812 318.929688 568.386719 C 330.789062 557.597656 338.414062 545.605469 342.285156 529.96875 C 344.707031 520.398438 353.304688 514.097656 359.355469 506.703125 C 364.195312 500.769531 368.433594 494.46875 372.304688 487.804688 C 379.203125 475.929688 384.53125 463.203125 388.164062 449.992188 C 388.28125 450.117188 388.527344 450.359375 388.644531 450.480469 C 389.011719 450.964844 389.375 451.328125 389.855469 451.570312 C 390.949219 452.539062 391.914062 453.511719 393.003906 454.480469 C 393.125 454.597656 393.246094 454.597656 393.371094 454.597656 C 392.160156 464.898438 387.316406 475.5625 384.167969 484.894531 C 380.054688 497.011719 375.695312 509.011719 370.855469 520.882812 C 370.488281 521.851562 372.1875 522.582031 372.546875 521.609375 C 378.238281 508.644531 383.6875 495.679688 388.40625 482.351562 C 391.796875 472.65625 397 461.75 396.878906 451.207031 C 398.570312 450.597656 400.269531 449.753906 401.960938 448.78125 C 400.144531 471.445312 399.058594 493.863281 392.519531 515.914062 C 385.5 539.304688 370.730469 559.65625 367.222656 584.140625 C 366.859375 586.4375 370.25 587.410156 370.730469 585.105469 C 375.574219 560.023438 391.554688 538.816406 398.816406 514.339844 C 402.566406 501.738281 404.988281 488.527344 406.5625 475.082031 C 407.167969 478.59375 407.773438 482.105469 408.5 485.378906 C 412.734375 504.769531 417.695312 524.035156 422.902344 543.179688 C 423.265625 544.632812 425.445312 544.027344 425.199219 542.574219 C 422.054688 524.398438 418.542969 506.339844 414.671875 488.164062 C 412.855469 479.804688 411.402344 471.445312 411.160156 462.839844 C 410.921875 455.445312 412.007812 448.300781 412.613281 441.027344 C 412.855469 441.027344 413.21875 440.90625 413.460938 440.90625 C 413.699219 442.96875 413.945312 445.144531 414.304688 447.210938 C 413.460938 450.722656 414.1875 453.875 415.640625 456.902344 C 417.453125 468.898438 419.753906 480.894531 424.113281 491.800781 C 429.921875 506.097656 439.96875 517.609375 452.558594 526.335938 C 453.644531 527.0625 454.613281 525.367188 453.644531 524.515625 C 432.707031 509.492188 425.324219 487.441406 420.964844 464.050781 C 423.382812 466.476562 426.050781 468.65625 428.589844 470.59375 C 435.371094 475.6875 442.390625 480.410156 449.773438 484.652344 C 457.15625 488.894531 467.445312 492.046875 471.558594 500.039062 C 472.046875 501.011719 473.375 500.164062 472.894531 499.191406 C 468.167969 489.621094 456.671875 485.988281 448.199219 480.535156 C 438.03125 473.988281 424.59375 466.351562 419.511719 454.964844 C 418.90625 450.84375 418.300781 446.605469 417.695312 442.480469 C 424.839844 450.117188 432.34375 457.386719 441.058594 463.082031 C 453.890625 471.445312 468.898438 475.082031 483.179688 480.289062 C 514.53125 491.800781 544.546875 508.039062 571.300781 528.035156 C 572.023438 528.515625 572.628906 527.425781 572.023438 526.820312 C 547.574219 508.039062 521.429688 492.40625 492.984375 480.652344 C 478.21875 474.59375 462.117188 470.714844 448.199219 463.082031 C 438.273438 457.628906 429.921875 449.875 422.054688 441.757812 C 456.550781 453.144531 494.316406 456.65625 530.148438 458.839844 C 549.632812 460.050781 570.9375 463.082031 590.304688 460.65625 C 610.035156 458.117188 624.800781 442 645.617188 447.816406 C 648.402344 448.664062 649.855469 444.785156 647.558594 443.210938 C 632.910156 433.632812 616.085938 444.90625 602.167969 450.480469 C 583.039062 458.117188 558.832031 453.628906 538.738281 452.539062 C 506.179688 450.84375 474.46875 447.328125 442.875 441.269531 C 455.101562 439.816406 467.6875 435.574219 477.128906 433.152344 C 509.445312 425.035156 541.523438 415.582031 572.992188 404.675781 C 588.488281 399.347656 603.859375 393.648438 619.113281 387.710938 C 631.574219 382.863281 646.707031 378.863281 657.601562 370.746094 C 661.59375 367.71875 663.898438 364.324219 666.195312 359.839844 C 669.460938 353.292969 675.273438 349.054688 678.664062 342.753906 C 682.414062 335.605469 682.054688 327.847656 678.421875 321.304688 C 680.480469 319.003906 682.171875 316.457031 683.382812 313.550781 C 685.804688 308.824219 690.644531 287.617188 677.9375 290.527344 Z M 597.441406 532.394531 C 601.4375 527.546875 602.890625 523.429688 603.253906 517.246094 C 603.496094 513.492188 603.617188 509.976562 606.886719 507.675781 C 608.09375 506.828125 609.671875 508.039062 609.671875 509.25 C 609.789062 511.917969 608.824219 514.460938 608.460938 517.128906 C 608.09375 519.550781 607.855469 522.09375 607.125 524.515625 C 605.675781 528.640625 603.011719 532.394531 599.257812 534.699219 C 597.683594 535.546875 596.355469 533.605469 597.441406 532.394531 Z M 457.882812 566.808594 C 471.320312 574.804688 483.90625 570.5625 498.3125 571.65625 C 505.210938 572.261719 511.140625 575.292969 517.796875 577.109375 C 525.058594 579.046875 532.203125 578.5625 539.226562 576.621094 C 529.175781 569.957031 520.21875 562.445312 508.839844 557.722656 C 508.113281 557.355469 508.601562 556.144531 509.324219 556.511719 C 520.824219 561.117188 533.777344 566.445312 542.367188 575.773438 C 553.261719 572.261719 563.1875 567.292969 572.511719 561.117188 C 572.386719 560.992188 572.265625 560.75 572.148438 560.507812 C 566.578125 542.453125 548.90625 535.0625 533.777344 526.09375 C 532.808594 525.488281 533.65625 524.15625 534.625 524.640625 C 549.753906 532.152344 571.300781 540.515625 574.808594 559.417969 C 577.105469 557.839844 579.285156 556.144531 581.589844 554.328125 C 583.28125 552.992188 585.21875 554.570312 584.492188 556.511719 C 578.804688 569.597656 560.648438 575.410156 548.421875 580.140625 C 540.433594 583.167969 531.960938 585.351562 523.242188 584.5 C 514.289062 583.652344 506.542969 578.6875 497.707031 577.714844 C 488.871094 576.746094 480.03125 578.804688 471.195312 577.226562 C 464.660156 576.015625 458.609375 573.234375 453.285156 569.109375 C 442.632812 560.992188 434.035156 548.875 427.621094 537.363281 C 426.773438 535.910156 428.953125 534.574219 429.921875 536.027344 C 438.03125 547.539062 445.417969 559.417969 457.882812 566.808594 Z M 640.535156 498.710938 C 641.746094 507.917969 633.878906 516.035156 628.429688 522.339844 C 626.375 524.640625 623.832031 526.941406 622.136719 529.488281 C 617.902344 535.421875 619.59375 537.605469 618.625 543.296875 C 618.019531 546.933594 616.570312 550.328125 614.269531 553.355469 C 611.605469 556.875 607.855469 559.902344 603.617188 560.992188 C 598.777344 575.050781 585.097656 582.925781 571.300781 586.679688 C 551.328125 592.015625 529.78125 593.34375 509.324219 596.011719 C 492.136719 598.316406 473.257812 601.222656 456.917969 593.585938 C 442.632812 586.921875 431.496094 571.414062 427.015625 556.628906 C 426.167969 553.722656 430.042969 552.632812 431.496094 554.691406 C 441.785156 568.503906 446.746094 584.015625 464.785156 589.710938 C 479.550781 594.316406 495.769531 591.527344 510.65625 589.589844 C 527.726562 587.410156 545.152344 585.957031 562.101562 583.046875 C 577.351562 580.378906 591.632812 574.6875 599.621094 561.355469 C 598.777344 561.355469 598.046875 561.234375 597.203125 561.117188 C 596.113281 560.871094 595.75 559.050781 596.835938 558.570312 C 600.957031 556.628906 605.433594 555.296875 608.699219 552.027344 C 614.390625 546.328125 612.695312 540.875 614.148438 533.96875 C 615.480469 527.792969 620.929688 523.429688 624.917969 518.945312 C 627.097656 516.523438 629.277344 513.976562 631.09375 511.433594 C 633.996094 507.308594 636.417969 500.644531 634.484375 495.558594 C 633.148438 492.164062 628.550781 489.621094 626.375 486.710938 C 622.496094 481.257812 621.773438 474.957031 624.3125 468.777344 C 624.675781 467.808594 626.617188 467.808594 626.375 469.023438 C 625.164062 479.074219 629.402344 483.441406 635.695312 489.980469 C 638.113281 492.527344 640.046875 495.191406 640.535156 498.710938 Z M 654.9375 458.476562 C 656.03125 462.476562 653.246094 465.023438 650.21875 467.082031 C 644.40625 470.957031 637.992188 475.5625 631.574219 478.351562 C 630.007812 479.074219 627.945312 477.015625 629.519531 475.6875 C 632.910156 472.898438 636.78125 470.839844 640.535156 468.535156 C 642.714844 467.203125 649.976562 464.175781 651.1875 460.898438 C 647.191406 460.65625 643.804688 458.359375 642.109375 454.597656 C 641.625 453.628906 642.46875 452.78125 643.320312 452.78125 C 636.90625 449.511719 628.429688 455.328125 623.101562 458.839844 C 617.050781 462.839844 612.332031 467.929688 607.367188 473.140625 C 606.644531 473.867188 605.3125 472.898438 605.914062 472.050781 C 611 463.570312 618.988281 456.78125 627.703125 452.175781 C 633.515625 449.144531 640.777344 445.753906 646.347656 450.84375 C 647.675781 452.058594 645.859375 454.480469 644.40625 453.386719 C 644.40625 453.386719 644.285156 453.386719 644.285156 453.269531 C 646.222656 456.050781 649.371094 457.511719 652.757812 457.023438 C 653.609375 456.902344 654.695312 457.386719 654.9375 458.476562 Z M 371.335938 592.132812 C 374.242188 606.554688 369.519531 622.550781 361.777344 634.667969 C 359.597656 638.179688 355.722656 645.332031 351.125 645.816406 C 346.644531 646.296875 344.953125 638.785156 341.804688 638.421875 C 341.804688 638.910156 341.679688 639.273438 341.441406 639.757812 C 330.667969 657.085938 307.789062 663.261719 289.273438 668.234375 C 276.921875 671.625 264.097656 675.019531 251.144531 675.019531 C 237.949219 675.140625 225.238281 670.78125 212.046875 670.414062 C 210.597656 670.414062 210.597656 668.234375 212.046875 668.109375 C 223.546875 667.019531 234.558594 669.082031 246.058594 669.320312 C 258.527344 669.566406 270.628906 666.898438 282.617188 663.628906 C 303.433594 658.054688 321.832031 652.238281 337.085938 636.363281 C 338.171875 635.273438 339.507812 635.390625 340.46875 636 C 342.648438 635.03125 343.015625 635.03125 345.558594 636.121094 C 348.21875 637.210938 346.886719 638.421875 349.792969 639.027344 C 354.03125 639.878906 355.359375 635.390625 357.539062 632.003906 C 365.164062 619.519531 366.375 606.675781 367.101562 592.496094 C 367.222656 590.4375 370.855469 589.710938 371.335938 592.132812 Z M 239.402344 302.886719 C 240.734375 302.886719 242.066406 302.886719 243.519531 302.886719 C 244.847656 303.007812 246.304688 302.765625 247.515625 302.886719 C 247.632812 302.886719 247.875 302.886719 247.996094 302.886719 C 254.046875 312.21875 260.707031 321.304688 268.210938 329.664062 C 268.816406 330.269531 269.421875 330.636719 270.148438 330.757812 C 271.839844 333.90625 273.65625 336.933594 275.472656 339.964844 C 265.425781 331.121094 255.625 322.152344 246.058594 312.457031 C 243.03125 309.429688 240.007812 306.28125 236.863281 303.253906 C 237.585938 303.007812 238.4375 302.886719 239.402344 302.886719 Z M 74.0625 314.640625 C 77.085938 305.1875 77.691406 295.128906 84.832031 287.617188 C 94.273438 277.804688 108.433594 274.289062 118.722656 265.324219 C 119.210938 265.566406 119.816406 265.6875 120.539062 265.441406 C 137.726562 259.988281 153.824219 258.898438 171.136719 264.351562 C 187.234375 269.441406 201.394531 279.136719 214.105469 289.921875 C 236.257812 308.582031 255.136719 333.300781 280.4375 347.964844 C 283.222656 352.207031 286.125 356.324219 289.273438 360.445312 C 297.746094 371.714844 307.066406 382.382812 317.355469 392.074219 C 327.519531 401.769531 339.019531 412.675781 351.609375 419.09375 C 354.273438 420.429688 357.539062 416.917969 354.996094 414.609375 C 344.347656 405.039062 332.363281 397.28125 322.074219 387.347656 C 311.300781 377.046875 301.253906 365.777344 292.417969 353.660156 C 275.714844 330.757812 262.761719 305.1875 254.289062 278.046875 C 249.207031 261.6875 245.816406 244.84375 243.277344 227.878906 C 240.855469 211.277344 237.226562 193.101562 241.460938 176.5 C 244.96875 162.808594 252.714844 150.6875 257.4375 137.484375 C 259.371094 132.148438 260.828125 126.578125 261.1875 120.882812 C 261.433594 117.972656 260.222656 113.613281 261.070312 110.824219 C 264.820312 97.976562 272.933594 108.640625 275.835938 112.402344 C 276.921875 113.855469 279.101562 112.035156 278.378906 110.460938 C 275.230469 104.640625 267.726562 95.796875 260.464844 101.007812 C 253.320312 106.097656 256.953125 121 255.257812 128.152344 C 252.839844 138.207031 247.996094 147.417969 243.636719 156.871094 C 242.1875 151.296875 239.886719 145.601562 238.3125 140.269531 C 237.949219 139.058594 236.015625 139.542969 236.375 140.753906 C 238.070312 147.417969 239.042969 155.054688 241.582031 161.59375 C 241.214844 162.566406 240.734375 163.414062 240.371094 164.382812 C 239.28125 167.171875 238.3125 170.078125 237.46875 172.867188 C 231.292969 160.382812 222.214844 145.722656 222.09375 131.90625 C 222.09375 130.695312 220.15625 130.695312 220.15625 131.90625 C 219.792969 147.542969 228.628906 163.898438 235.890625 177.472656 C 236.015625 177.710938 236.132812 177.835938 236.257812 177.953125 C 234.558594 185.953125 234.316406 194.195312 234.921875 202.792969 C 237.101562 233.210938 242.550781 263.019531 252.472656 291.136719 C 240.855469 262.292969 227.902344 233.695312 221.367188 203.402344 C 221.125 202.1875 219.1875 202.675781 219.429688 203.886719 C 223.183594 223.882812 229.839844 242.78125 237.101562 261.804688 C 239.886719 269.199219 242.425781 277.078125 245.210938 284.953125 C 242.1875 279.625 239.28125 274.289062 236.496094 268.835938 C 226.332031 249.207031 215.074219 229.210938 210.957031 207.160156 C 206.964844 186.195312 205.507812 162.082031 207.8125 140.875 C 209.023438 129.726562 212.894531 117.972656 221.609375 110.582031 C 230.929688 102.707031 243.519531 102.949219 252.960938 110.21875 C 254.414062 111.429688 255.988281 109.007812 254.894531 107.796875 C 242.550781 93.253906 220.886719 100.644531 211.078125 114.21875 C 196.675781 134.089844 200.308594 163.898438 201.757812 186.800781 C 202.605469 199.765625 204.421875 212.730469 208.535156 225.09375 C 212.773438 237.453125 218.945312 249.207031 224.757812 260.839844 C 231.292969 273.925781 238.191406 287.011719 245.941406 299.371094 C 245.453125 299.128906 245.09375 299.011719 244.488281 298.886719 C 243.03125 298.648438 241.460938 298.40625 239.886719 298.40625 C 237.832031 298.28125 234.921875 298.039062 233.109375 299.253906 C 225.121094 291.375 216.890625 283.863281 207.8125 277.078125 C 183.722656 259.023438 147.410156 244.601562 118.480469 260.351562 C 117.636719 260.839844 117.273438 261.566406 117.273438 262.414062 C 103.59375 273.199219 83.503906 275.988281 75.269531 292.828125 C 70.789062 302.039062 68.492188 312.824219 64.859375 322.394531 C 61.46875 331.605469 63.890625 338.394531 68.613281 346.628906 C 70.429688 349.78125 75.390625 346.875 73.457031 343.722656 C 69.703125 337.421875 67.523438 331.730469 69.941406 324.457031 C 71.152344 321.304688 72.851562 318.152344 74.0625 314.640625 Z M 108.195312 409.644531 C 94.273438 405.40625 85.195312 391.105469 80.230469 375.59375 C 80.113281 375.46875 79.871094 375.46875 79.75 375.351562 C 78.660156 374.746094 78.78125 373.535156 79.382812 372.804688 C 76.359375 362.265625 75.148438 351.234375 75.511719 342.753906 C 75.875 335.722656 77.691406 329.183594 80.960938 322.882812 C 85.320312 314.765625 87.738281 307.371094 89.914062 298.40625 C 92.457031 287.742188 96.453125 277.558594 107.589844 273.683594 C 109.28125 273.078125 109.886719 275.625 108.316406 276.347656 C 94.152344 282.164062 95.121094 299.253906 91.851562 311.488281 C 89.914062 318.640625 86.28125 324.457031 83.742188 330.875 C 117.394531 342.996094 151.039062 355.234375 184.691406 367.476562 C 201.757812 373.652344 218.945312 379.957031 236.015625 386.257812 C 252.355469 392.316406 268.449219 399.101562 285.519531 402.980469 C 286.367188 403.097656 286 404.3125 285.15625 404.191406 C 250.539062 397.644531 216.890625 382.742188 183.84375 370.863281 C 150.074219 358.746094 116.300781 346.628906 82.535156 334.394531 C 81.5625 337.421875 80.960938 340.695312 80.835938 344.207031 C 80.71875 354.507812 82.535156 365.292969 86.527344 375.105469 C 98.386719 381.527344 110.855469 386.863281 123.804688 390.742188 C 136.15625 394.5 148.867188 396.433594 161.453125 399.222656 C 173.554688 402.011719 182.875 407.339844 193.285156 414.003906 C 205.148438 421.515625 218.21875 426.96875 231.898438 430 C 232.625 430.121094 232.382812 431.335938 231.53125 431.210938 C 218.945312 428.667969 207.207031 424.792969 195.949219 418.488281 C 183.117188 411.21875 172.222656 404.550781 157.578125 401.644531 C 133.371094 396.800781 110.613281 391.105469 88.828125 380.199219 C 93.792969 390.257812 100.808594 399.101562 110.25 405.28125 C 112.429688 406.617188 110.976562 410.492188 108.195312 409.644531 Z M 555.804688 232.363281 C 556.777344 234.300781 557.863281 236.964844 559.316406 238.90625 C 551.8125 242.542969 544.789062 246.90625 538.375 252.476562 C 525.304688 263.871094 515.132812 277.925781 499.886719 286.289062 C 503.757812 280.230469 507.632812 274.289062 511.867188 268.472656 C 523.488281 252.601562 539.34375 239.875 552.050781 224.847656 C 553.023438 227.519531 554.597656 229.941406 555.804688 232.363281 Z M 564.398438 201.824219 C 549.148438 226.425781 524.941406 242.90625 507.507812 265.6875 C 498.1875 277.804688 490.078125 290.890625 481.847656 303.734375 C 472.40625 318.277344 461.269531 332.695312 453.644531 348.085938 C 452.433594 350.628906 455.824219 353.660156 457.761719 351.234375 C 460.0625 348.328125 462.363281 345.417969 464.421875 342.269531 C 464.785156 342.632812 465.507812 342.753906 466.113281 342.269531 C 479.1875 331.363281 494.796875 323.605469 507.390625 312.09375 C 520.339844 300.101562 526.996094 282.53125 541.886719 272.59375 C 542.972656 271.863281 542.003906 270.171875 540.792969 270.777344 C 526.152344 280.105469 519.253906 295.859375 507.148438 307.851562 C 496.132812 318.882812 480.398438 324.699219 469.140625 335.363281 C 474.949219 326.394531 480.398438 317.066406 486.085938 308.21875 C 489.597656 302.648438 493.105469 297.070312 496.613281 291.496094 C 496.859375 291.496094 497.101562 291.496094 497.34375 291.496094 C 510.78125 287.136719 520.703125 277.316406 530.507812 267.746094 C 543.703125 254.78125 557.015625 245.207031 574.6875 239.148438 C 581.949219 236.722656 589.574219 233.816406 597.203125 232.484375 C 607.855469 230.664062 610.878906 241.453125 617.65625 246.90625 C 627.703125 255.140625 642.351562 256.839844 650.824219 267.019531 C 650.097656 267.019531 649.492188 267.019531 648.769531 267.019531 C 640.535156 266.652344 632.667969 265.929688 624.4375 267.140625 C 589.457031 272.105469 563.1875 298.039062 542.367188 324.699219 C 541.523438 325.789062 542.972656 327.488281 543.945312 326.277344 C 560.523438 306.398438 579.890625 287.5 604.464844 278.289062 C 613.058594 275.015625 621.890625 273.199219 630.96875 272.835938 C 621.046875 282.769531 611.363281 291.859375 599.746094 300.222656 C 589.210938 307.851562 578.441406 315.371094 569.363281 324.578125 C 558.949219 335.117188 553.386719 347.839844 546.847656 360.929688 C 538.496094 377.894531 525.910156 390.980469 507.996094 397.644531 C 507.027344 398.011719 507.507812 399.464844 508.359375 399.101562 C 521.429688 394.5 532.808594 386.863281 541.160156 375.714844 C 551.933594 361.171875 556.289062 343.117188 568.757812 329.546875 C 579.167969 318.152344 592.238281 309.671875 604.707031 300.582031 C 615.359375 292.828125 627.703125 284.222656 634.601562 272.59375 C 636.664062 272.59375 638.71875 272.59375 640.898438 272.835938 C 647.070312 273.316406 653.246094 274.171875 659.414062 273.199219 C 661.835938 272.835938 679.386719 268.835938 679.992188 274.53125 C 679.511719 274.171875 678.78125 274.171875 678.300781 274.777344 C 666.320312 288.710938 654.457031 301.1875 638.71875 311.003906 C 637.628906 311.734375 638.597656 313.304688 639.691406 312.699219 C 654.457031 304.824219 668.738281 293.800781 678.300781 279.863281 C 678.539062 281.921875 681.324219 283.617188 683.019531 281.683594 C 688.828125 274.894531 683.746094 265.804688 675.398438 264.351562 C 669.585938 263.265625 663.535156 264.960938 657.480469 266.171875 C 657.480469 266.171875 657.480469 266.046875 657.359375 266.046875 C 649.730469 252.839844 634.121094 251.386719 622.742188 242.90625 C 616.691406 238.421875 614.390625 229.695312 607.25 226.664062 C 600.46875 223.882812 592.601562 226.789062 585.945312 228.730469 C 578.5625 230.90625 571.417969 233.332031 564.398438 236.359375 C 563.792969 233.816406 561.976562 231.269531 560.523438 229.335938 C 558.710938 226.789062 556.53125 224.125 553.75 222.546875 C 558.710938 216.488281 563.070312 210.066406 566.460938 202.792969 C 567.0625 201.707031 565.25 200.496094 564.398438 201.824219 " fill-opacity="1" fill-rule="nonzero"/></g></svg>